<?xml version="1.0" encoding="utf-8"?>
<!--http://thenounproject.com/noun/smart-phone/#icon-No14922-->
<svg xmlns="http://www.w3.org/2000/svg" xmlns:xlink="http://www.w3.org/1999/xlink" version="1.1" id="Phone_1_" x="0px" y="0px" width="100px" height="100px" viewBox="0 0 100 100" enable-background="new 0 0 100 100" xml:space="preserve">
<path id="Phone" d="M75.652,13.801v-3.27C75.652,0.26,66.268-0.001,50-0.001S24.349,0.26,24.349,10.531V22.99  c-0.375,0-0.679,0.304-0.679,0.679v16.738c0,0.374,0.304,0.677,0.679,0.677v48.386c0,10.271,9.385,10.531,25.652,10.531  s25.652-0.261,25.652-10.531V22.668c0.377,0,0.678-0.304,0.678-0.678v-7.511C76.33,14.104,76.029,13.801,75.652,13.801z   M44.683,5.292h10.636c0.346,0,0.625,0.279,0.625,0.625c0,0.346-0.279,0.626-0.625,0.626H44.683c-0.345,0-0.626-0.28-0.626-0.626  C44.057,5.571,44.338,5.292,44.683,5.292z M73.229,88.896H26.773V10.688h46.457V88.896z"></path>
</svg>