<?xml version="1.0" encoding="utf-8"?>
<!--http://thenounproject.com/noun/tablet/#icon-No18582-->
<svg xmlns="http://www.w3.org/2000/svg" xmlns:xlink="http://www.w3.org/1999/xlink" version="1.1" id="Layer_1" x="0px" y="0px" width="100px" height="100px" viewBox="0 0 100 62" enable-background="new 0 0 100 62" xml:space="preserve">
<path fill="#000000" d="M100,59.832C100,61.029,99.027,62,97.83,62H2.17C0.972,62,0,61.029,0,59.832V2.168C0,0.971,0.972,0,2.17,0  h95.66C99.027,0,100,0.971,100,2.168V59.832z M94,6H6v49h88V6z M50,56.541l-2,0.361v1.445l2,0.361V56.541z M48.777,1.84  c-0.267,0-0.482,0.215-0.482,0.482c0,0.266,0.216,0.48,0.482,0.48c0.266,0,0.481-0.216,0.481-0.48  C49.259,2.055,49.043,1.84,48.777,1.84z M51.307,2.078c-0.134,0-0.242,0.109-0.242,0.244c0,0.135,0.108,0.244,0.242,0.244  c0.137,0,0.244-0.109,0.244-0.244C51.551,2.187,51.441,2.078,51.307,2.078z"></path>
</svg>